<svg width="256" height="256" viewBox="0 0 256 256" fill="none" xmlns="http://www.w3.org/2000/svg">
  <defs>
    <linearGradient id="walletBody" x1="52" y1="44" x2="184" y2="152" gradientUnits="userSpaceOnUse">
      <stop stop-color="#20C4E9"/>
      <stop offset="1" stop-color="#1447B1"/>
    </linearGradient>
    <linearGradient id="walletPocket" x1="86" y1="78" x2="207" y2="159" gradientUnits="userSpaceOnUse">
      <stop stop-color="#1887DB"/>
      <stop offset="1" stop-color="#133C9E"/>
    </linearGradient>
    <linearGradient id="greenAccent" x1="95" y1="18" x2="171" y2="51" gradientUnits="userSpaceOnUse">
      <stop stop-color="#7BDD00"/>
      <stop offset="1" stop-color="#48B000"/>
    </linearGradient>
    <linearGradient id="yellowAccent" x1="107" y1="46" x2="182" y2="67" gradientUnits="userSpaceOnUse">
      <stop stop-color="#FFE45D"/>
      <stop offset="1" stop-color="#FFC107"/>
    </linearGradient>
    <linearGradient id="walletClasp" x1="168" y1="98" x2="225" y2="98" gradientUnits="userSpaceOnUse">
      <stop stop-color="#7BDD00"/>
      <stop offset="1" stop-color="#48B000"/>
    </linearGradient>
    <linearGradient id="handle" x1="55" y1="143" x2="110" y2="173" gradientUnits="userSpaceOnUse">
      <stop stop-color="#7BDD00"/>
      <stop offset="1" stop-color="#48B000"/>
    </linearGradient>
    <filter id="shadow" x="36" y="20" width="201" height="180" filterUnits="userSpaceOnUse" color-interpolation-filters="sRGB">
      <feDropShadow dx="0" dy="10" stdDeviation="9" flood-color="#133C9E" flood-opacity="0.18"/>
    </filter>
  </defs>
  <g filter="url(#shadow)">
    <path d="M57 69C57 60.1634 64.1634 53 73 53H197C205.837 53 213 60.1634 213 69V137C213 145.837 205.837 153 197 153H73C64.1634 153 57 145.837 57 137V69Z" fill="#123C9A"/>
    <path d="M57 71C57 62.1634 64.1634 55 73 55H187C195.837 55 203 62.1634 203 71V134C203 142.837 195.837 150 187 150H57V71Z" fill="url(#walletBody)"/>
    <path d="M84 83C84 74.1634 91.1634 67 100 67H187C195.837 67 203 74.1634 203 83V133C203 141.837 195.837 149 187 149H84V83Z" fill="url(#walletPocket)"/>
    <path d="M86 55L166 26C172.438 23.6695 179 28.4386 179 35.2858V45C179 51.0171 175.256 56.4127 169.598 58.5388L113 79H86V55Z" fill="url(#greenAccent)"/>
    <path d="M97 64L185 54C192.047 53.1993 198 58.717 198 65.8094V72C198 77.8893 194.072 83.0473 188.4 84.6425L120 104H97V64Z" fill="url(#yellowAccent)"/>
    <rect x="167" y="85" width="58" height="32" rx="11" fill="white"/>
    <rect x="173" y="90" width="52" height="25" rx="10" fill="url(#walletClasp)"/>
    <circle cx="193" cy="102.5" r="10" fill="#FFE45D"/>
    <circle cx="193" cy="102.5" r="5.5" fill="#FFC107"/>
    <path d="M66 153L57 160V140L128 90H151C158.18 90 164 95.8203 164 103V118L66 153Z" fill="white"/>
    <path d="M57 162L53 168C50.2045 172.194 51.4041 177.884 55.5982 180.679L66.0794 187.666C70.2734 190.462 75.9636 189.262 78.7591 185.068L82.7607 179.067L57 162Z" fill="url(#handle)"/>
    <path d="M95 105C95 80.1472 115.147 60 140 60C149.566 60 158.438 63.0091 165.716 68.1382L147.838 80.4514C145.392 79.0787 142.582 78.3929 139.612 78.3929C129.535 78.3929 121.365 86.5629 121.365 96.6404C121.365 106.718 129.535 114.888 139.612 114.888C149.69 114.888 157.86 106.718 157.86 96.6404C157.86 96.0499 157.832 95.4656 157.776 94.8877L174.722 83.1599C177.653 89.2343 179.327 96.0039 179.327 103.165C179.327 128.018 159.18 148.165 134.327 148.165C109.474 148.165 89.3271 128.018 89.3271 103.165L95 105Z" fill="white"/>
  </g>
</svg>
