<svg width="720" height="240" viewBox="0 0 720 240" fill="none" xmlns="http://www.w3.org/2000/svg">
  <defs>
    <linearGradient id="walletBody" x1="92" y1="34" x2="266" y2="168" gradientUnits="userSpaceOnUse">
      <stop stop-color="#20C4E9"/>
      <stop offset="1" stop-color="#1447B1"/>
    </linearGradient>
    <linearGradient id="walletPocket" x1="148" y1="88" x2="309" y2="173" gradientUnits="userSpaceOnUse">
      <stop stop-color="#1887DB"/>
      <stop offset="1" stop-color="#133C9E"/>
    </linearGradient>
    <linearGradient id="greenAccent" x1="172" y1="22" x2="269" y2="68" gradientUnits="userSpaceOnUse">
      <stop stop-color="#7BDD00"/>
      <stop offset="1" stop-color="#48B000"/>
    </linearGradient>
    <linearGradient id="yellowAccent" x1="188" y1="58" x2="283" y2="86" gradientUnits="userSpaceOnUse">
      <stop stop-color="#FFE45D"/>
      <stop offset="1" stop-color="#FFC107"/>
    </linearGradient>
    <linearGradient id="walletClasp" x1="253" y1="104" x2="327" y2="104" gradientUnits="userSpaceOnUse">
      <stop stop-color="#7BDD00"/>
      <stop offset="1" stop-color="#48B000"/>
    </linearGradient>
    <linearGradient id="handle" x1="98" y1="154" x2="170" y2="195" gradientUnits="userSpaceOnUse">
      <stop stop-color="#7BDD00"/>
      <stop offset="1" stop-color="#48B000"/>
    </linearGradient>
    <filter id="shadow" x="74" y="16" width="269" height="194" filterUnits="userSpaceOnUse" color-interpolation-filters="sRGB">
      <feDropShadow dx="0" dy="10" stdDeviation="10" flood-color="#133C9E" flood-opacity="0.16"/>
    </filter>
  </defs>
  <g filter="url(#shadow)">
    <path d="M107 77C107 66.5066 115.507 58 126 58H292C302.493 58 311 66.5066 311 77V153C311 163.493 302.493 172 292 172H126C115.507 172 107 163.493 107 153V77Z" fill="#123C9A"/>
    <path d="M107 79C107 68.5066 115.507 60 126 60H280C290.493 60 299 68.5066 299 79V150C299 160.493 290.493 169 280 169H107V79Z" fill="url(#walletBody)"/>
    <path d="M141 93C141 82.5066 149.507 74 160 74H280C290.493 74 299 82.5066 299 93V149C299 159.493 290.493 168 280 168H141V93Z" fill="url(#walletPocket)"/>
    <path d="M144 60L250 21C257.693 18.172 266 23.8637 266 32.0603V45C266 52.1172 261.546 58.4712 254.834 60.8992L179 88H144V60Z" fill="url(#greenAccent)"/>
    <path d="M158 72L275 58C283.423 56.9938 290.648 63.5781 290.648 72.0612V80C290.648 87.0084 285.954 93.1469 279.193 94.9851L188 120H158V72Z" fill="url(#yellowAccent)"/>
    <rect x="253" y="95" width="74" height="39" rx="13" fill="white"/>
    <rect x="260" y="101" width="67" height="31" rx="12" fill="url(#walletClasp)"/>
    <circle cx="286.5" cy="116.5" r="11.5" fill="#FFE45D"/>
    <circle cx="286.5" cy="116.5" r="6.5" fill="#FFC107"/>
    <path d="M119 173L108 181V157L200 94H230C238.837 94 246 101.163 246 110V128L119 173Z" fill="white"/>
    <path d="M108 183L104 189C100.525 194.212 102.017 201.274 107.228 204.749L119.216 212.741C124.428 216.215 131.49 214.723 134.964 209.512L138.965 203.51L108 183Z" fill="url(#handle)"/>
    <path d="M160 171L131 191L100 170L194 108L206 116L160 171Z" fill="white"/>
    <path d="M158 116C158 86.1766 182.177 62 212 62C223.547 62 234.247 65.6247 243.017 71.7974L221.469 86.5374C218.532 84.8736 215.136 83.9231 211.5 83.9231C200.178 83.9231 191 93.1015 191 104.423C191 115.745 200.178 124.923 211.5 124.923C222.822 124.923 232 115.745 232 104.423C232 103.652 231.957 102.89 231.875 102.14L252.3 88.0052C255.93 95.4246 258 103.769 258 112.615C258 142.438 233.823 166.615 204 166.615C174.177 166.615 150 142.438 150 112.615L158 116Z" fill="white"/>
  </g>
  <path d="M351 176V111.2H395.64V126.68H369.48V137.12H392.52V152.12H369.48V176H351Z" fill="#143F9F"/>
  <path d="M404.145 176V129.44H422.145V176H404.145ZM413.145 124.16C410.225 124.16 407.825 123.347 405.945 121.72C404.118 120.093 403.205 118.053 403.205 115.6C403.205 113.147 404.118 111.107 405.945 109.48C407.825 107.853 410.225 107.04 413.145 107.04C416.012 107.04 418.385 107.853 420.265 109.48C422.145 111.053 423.085 113.067 423.085 115.52C423.085 118.08 422.145 120.173 420.265 121.8C418.385 123.373 416.012 124.16 413.145 124.16Z" fill="#143F9F"/>
  <path d="M445.4 176L425.72 129.44H444.56L453.68 153.8L463.16 129.44H481.16L461.48 176H445.4Z" fill="#143F9F"/>
  <path d="M485.363 176V111.2H503.363V148.04L519.323 129.44H540.563L522.083 149.84L541.163 176H519.563L508.883 160.28L503.363 166.52V176H485.363Z" fill="#143F9F"/>
  <path d="M546.514 191.84C543.807 191.84 541.247 191.493 538.834 190.8V177.12C540.394 177.493 541.927 177.68 543.434 177.68C545.314 177.68 546.901 177.227 548.194 176.32C549.541 175.467 550.781 173.947 551.914 171.76L552.394 170.92L532.834 129.44H551.314L561.754 154.88L572.794 129.44H590.794L571.594 172.72C568.887 178.8 565.781 183.213 562.274 185.96C558.821 189.88 553.567 191.84 546.514 191.84Z" fill="#143F9F"/>
  <path d="M596.266 176V111.2H626.626C632.813 111.2 638.173 112.2 642.706 114.2C647.293 116.147 650.826 118.987 653.306 122.72C655.84 126.453 657.106 130.907 657.106 136.08C657.106 141.307 655.84 145.813 653.306 149.6C650.826 153.333 647.293 156.2 642.706 158.2C638.173 160.2 632.813 161.2 626.626 161.2H614.746V176H596.266ZM614.746 146.56H625.546C629.333 146.56 632.173 145.707 634.066 144C636.013 142.293 636.986 139.653 636.986 136.08C636.986 132.56 636.013 129.947 634.066 128.24C632.173 126.533 629.333 125.68 625.546 125.68H614.746V146.56Z" fill="#55B600"/>
  <path d="M680.455 176.96C675.975 176.96 671.975 176.173 668.455 174.6C664.988 172.973 662.241 170.787 660.215 168.04C658.188 165.293 657.175 162.16 657.175 158.64C657.175 154.907 658.148 151.72 660.095 149.08C662.041 146.44 664.895 144.427 668.655 143.04C672.415 141.6 676.988 140.88 682.375 140.88H694.615V151.08H684.535C681.082 151.08 678.695 151.587 677.375 152.6C676.108 153.56 675.475 154.907 675.475 156.64C675.475 158.213 676.081 159.453 677.295 160.36C678.561 161.267 680.241 161.72 682.335 161.72C684.321 161.72 686.135 161.24 687.775 160.28C689.415 159.267 690.615 157.76 691.375 155.76L694.095 163.32C693.015 167.08 690.881 170.04 687.695 172.2C684.561 174.373 680.148 175.96 674.455 176.96H680.455ZM693.655 176V167.48L692.335 165.4V149.44C692.335 146.96 691.548 145.013 689.975 143.6C688.401 142.187 685.921 141.48 682.535 141.48C680.228 141.48 677.895 141.853 675.535 142.6C673.175 143.293 671.135 144.28 669.415 145.56L663.295 133.88C666.055 132 669.388 130.56 673.295 129.56C677.255 128.56 681.215 128.06 685.175 128.06C693.415 128.06 699.788 130 704.295 133.88C708.801 137.707 711.055 143.787 711.055 152.12V176H693.655Z" fill="#55B600"/>
</svg>
